<svg id="图层_1" data-name="图层 1" xmlns="http://www.w3.org/2000/svg" viewBox="0 0 374.78 169.36"><defs><style>.cls-1{fill:#19284e;fill-rule:evenodd;}.cls-2{fill:none;stroke:#231815;stroke-miterlimit:10;stroke-width:0.25px;}</style></defs><path class="cls-1" d="M135,214c-.31,0-.29,2,0,2,.53,0,5.07.11,6.17,1.09a1.43,1.43,0,0,1,.24,1.77l-13,24.34h-.15l-13.62-24.32a1.3,1.3,0,0,1,.5-1.75c1.17-.74,2.79-1.17,6.18-1.14.53,0,.53-2,0-2H97.2c-.45,0-.5,2,0,2,.87,0,3,.07,4.11.19,1.44.16,2.8,2.12,3.13,2.69l4.1,6.77-9.49,17.55h-.14l-12-21.59c-.52-1.05-1.4-2.25-1.44-3.46a1.45,1.45,0,0,1,.59-1.11c1.29-.84,3-1.06,5.19-1,.18,0,.25-2,0-2H68a4,4,0,0,0,0,2h1.44c2.95,0,3.77.73,4.53,1.28,1,.73,1.82,2.52,2.63,4,0,0,18.5,33.26,18.77,33.4h2.41l13.32-24.23,13.61,24.23h2.55l16.87-31c2.38-4.1,3.1-7.68,9.35-7.66.27,0,.26-2,0-2Zm52.52,37.84s-3.78,0-4.55-.14c-1.08-.22-2.91-.66-3.54-1.56s-.72-1.4-.72-3.88c0-4.58.09-21.26.09-25.84a3.78,3.78,0,0,1,.63-2.74c1.46-1.29,4.06-1.7,8-1.71.23,0,.25-2,0-2H160.84a4.52,4.52,0,0,0,0,2,52.11,52.11,0,0,1,5.24.14,4.45,4.45,0,0,1,2.7,1.71c.86,1.13.42,6.33.42,8.37,0,4.77,0,20.17,0,20.17,0,1.65.06,3.28-.51,3.87-1.7,1.42-4.2,1.6-7.87,1.61-.41,0-.44,2-.08,2l26.73,0C187.78,253.85,187.8,251.86,187.5,251.86Zm59.94-9.21-1.42-.29a12,12,0,0,1-5.52,6.81c-3,1.53-7.61,1.41-12.05,1.41H208.23l39.08-35.82c.32-.29.3-.74-.1-.74H201.52c-.28,2.6-1.33,9.78-1.13,10.2.41.58,2.57.52,2.56.24.13-1.93,1.46-4.75,3-5.77a9.58,9.58,0,0,1,5.1-1.52l22.12,0v.14c-2.7,1.77-38,34.54-38,34.54-.45.5-.43,2.05-.08,2.05l50.42,0,2.87-10.77C248.34,242.89,248.06,242.77,247.44,242.65Zm59.81.56A18.85,18.85,0,0,1,299,250a18.4,18.4,0,0,1-4.25.85c-1,0-16.82.66-18.7-.4-.95-.55-1.09-1.59-1.09-3.71V234.57h14.4a12.29,12.29,0,0,1,3,.28c3,.78,4.3,2.14,4.68,5.53h2.26c1.27,0,1.36-14.47,0-14.47h-2.27c-.11,1.66-.49,3.56-1.56,4.25C292.36,232.22,275,232,275,232V217.17h20.89a10.49,10.49,0,0,1,3.86,1.1,8.28,8.28,0,0,1,2.44,3.5l.54,1.6h1.74c.35,0,.1-9.07.1-9.07,0-.2-.06-.34-.84-.32l-46.91,0c-.52,0-.59,2.07-.06,2.07H261c3,.15,3,.61,3.21.76,1.57,2.42,1.27,5.93,1.27,9.92v13.75c0,3.37.07,8.95-.57,9.64-.82,1.1-4.35,1.69-8.13,1.7-.35,0-.35,2,0,2l47.68,0s6-10.41,5.54-10.62ZM381.69,214H360.11c-.46,0-.48,2.11,0,2.11,0,0,5.38.4,5.72,1.86.42,1-.2,1.86-1,2.72l-13.17,12.91-13.13-13.13c-1-1-1.79-1.76-1.56-2.56.38-1.17,3.52-1.81,6.86-1.8.31,0,.35-2.11,0-2.11H317c-.41,0-.43,2.11,0,2.11,0,0,2,.07,2.43.12a9.71,9.71,0,0,1,5,1.74c1.44.85,20.13,19.74,20.13,19.74l0,11a2.14,2.14,0,0,1-.69,1.57c-1.86,1.4-4.14,1.56-7.78,1.57-.55,0-.6,2-.18,2h26.53c.54,0,.55-2,0-2,0,0-2.92,0-4.14-.1-.75-.07-2.7-.44-3.47-1.37s-.77-2.9-.77-4.48v-8.79l15.88-15.73a21.9,21.9,0,0,1,2.41-2.41c2.22-1.87,5.39-2.88,9.36-2.89C382,216.09,382,214,381.69,214Zm57.8,29.23c-1.23,2.27-5.22,5.69-8.22,6.81a24.06,24.06,0,0,1-4.54.85c-1,0-17,.69-18.55-.43-.83-.35-1-2.2-1-4.32,0-3.41,0-8.15,0-11.55h14.44a9.13,9.13,0,0,1,3,.28c3,.78,4.3,2.14,4.67,5.53h2.27c.66,0,.66-14.45,0-14.46h-2.28c-.1,1.66-.52,3.5-1.56,4.25-3,2.19-15,1.63-20.53,1.58V217.17h20.93a10.13,10.13,0,0,1,3.86,1.1,7.12,7.12,0,0,1,2.26,3c.24.7.48,1.41.71,2.12h1.73c.32,0,.12-9.07.12-9.07-.05-.32-.41-.32-1.27-.32l-46.36,0c-.7,0-.71,2.07-.06,2.07h3.71c3.15.16,3.31.55,3.58.76,1.05.91,1.23,1.85,1.23,5.85,0,0,.46,26.84-.52,27.46-.8,1.06-4,1.69-7.8,1.7-.68,0-.68,2,0,2l47.36,0s5.92-10.5,5.73-10.62Z" transform="translate(-67.73 -85.46)"/><path class="cls-2" d="M135,214c-.31,0-.29,2,0,2,.53,0,5.07.11,6.17,1.09a1.43,1.43,0,0,1,.24,1.77l-13,24.34h-.15l-13.62-24.32a1.3,1.3,0,0,1,.5-1.75c1.17-.74,2.79-1.17,6.18-1.14.53,0,.53-2,0-2H97.2c-.45,0-.5,2,0,2,.87,0,3,.07,4.11.19,1.44.16,2.8,2.12,3.13,2.69l4.1,6.77-9.49,17.55h-.14l-12-21.59c-.52-1.05-1.4-2.25-1.44-3.46a1.45,1.45,0,0,1,.59-1.11c1.29-.84,3-1.06,5.19-1,.18,0,.25-2,0-2H68a4,4,0,0,0,0,2h1.44c2.95,0,3.77.73,4.53,1.28,1,.73,1.82,2.52,2.63,4,0,0,18.5,33.26,18.77,33.4h2.41l13.32-24.23,13.61,24.23h2.55l16.87-31c2.38-4.1,3.1-7.68,9.35-7.66.27,0,.26-2,0-2Zm52.52,37.84s-3.78,0-4.55-.14c-1.08-.22-2.91-.66-3.54-1.56s-.72-1.4-.72-3.88c0-4.58.09-21.26.09-25.84a3.78,3.78,0,0,1,.63-2.74c1.46-1.29,4.06-1.7,8-1.71.23,0,.25-2,0-2H160.84a4.52,4.52,0,0,0,0,2,52.11,52.11,0,0,1,5.24.14,4.45,4.45,0,0,1,2.7,1.71c.86,1.13.42,6.33.42,8.37,0,4.77,0,20.17,0,20.17,0,1.65.06,3.28-.51,3.87-1.7,1.42-4.2,1.6-7.87,1.61-.41,0-.44,2-.08,2l26.73,0C187.78,253.85,187.8,251.86,187.5,251.86Zm59.94-9.21-1.42-.29a12,12,0,0,1-5.52,6.81c-3,1.53-7.61,1.41-12.05,1.41H208.23l39.08-35.82c.32-.29.3-.74-.1-.74H201.52c-.28,2.6-1.33,9.78-1.13,10.2.41.58,2.57.52,2.56.24.13-1.93,1.46-4.75,3-5.77a9.58,9.58,0,0,1,5.1-1.52l22.12,0v.14c-2.7,1.77-38,34.54-38,34.54-.45.5-.43,2.05-.08,2.05l50.42,0,2.87-10.77C248.34,242.89,248.06,242.77,247.44,242.65Zm59.81.56A18.85,18.85,0,0,1,299,250a18.4,18.4,0,0,1-4.25.85c-1,0-16.82.66-18.7-.4-.95-.55-1.09-1.59-1.09-3.71V234.57h14.4a12.29,12.29,0,0,1,3,.28c3,.78,4.3,2.14,4.68,5.53h2.26c1.27,0,1.36-14.47,0-14.47h-2.27c-.11,1.66-.49,3.56-1.56,4.25C292.36,232.22,275,232,275,232V217.17h20.89a10.49,10.49,0,0,1,3.86,1.1,8.28,8.28,0,0,1,2.44,3.5l.54,1.6h1.74c.35,0,.1-9.07.1-9.07,0-.2-.06-.34-.84-.32l-46.91,0c-.52,0-.59,2.07-.06,2.07H261c3,.15,3,.61,3.21.76,1.57,2.42,1.27,5.93,1.27,9.92v13.75c0,3.37.07,8.95-.57,9.64-.82,1.1-4.35,1.69-8.13,1.7-.35,0-.35,2,0,2l47.68,0s6-10.41,5.54-10.62ZM381.69,214H360.11c-.46,0-.48,2.11,0,2.11,0,0,5.38.4,5.72,1.86.42,1-.2,1.86-1,2.72l-13.17,12.91-13.13-13.13c-1-1-1.79-1.76-1.56-2.56.38-1.17,3.52-1.81,6.86-1.8.31,0,.35-2.11,0-2.11H317c-.41,0-.43,2.11,0,2.11,0,0,2,.07,2.43.12a9.71,9.71,0,0,1,5,1.74c1.44.85,20.13,19.74,20.13,19.74l0,11a2.14,2.14,0,0,1-.69,1.57c-1.86,1.4-4.14,1.56-7.78,1.57-.55,0-.6,2-.18,2h26.53c.54,0,.55-2,0-2,0,0-2.92,0-4.14-.1-.75-.07-2.7-.44-3.47-1.37s-.77-2.9-.77-4.48v-8.79l15.88-15.73a21.9,21.9,0,0,1,2.41-2.41c2.22-1.87,5.39-2.88,9.36-2.89C382,216.09,382,214,381.69,214Zm57.8,29.23c-1.23,2.27-5.22,5.69-8.22,6.81a24.06,24.06,0,0,1-4.54.85c-1,0-17,.69-18.55-.43-.83-.35-1-2.2-1-4.32,0-3.41,0-8.15,0-11.55h14.44a9.13,9.13,0,0,1,3,.28c3,.78,4.3,2.14,4.67,5.53h2.27c.66,0,.66-14.45,0-14.46h-2.28c-.1,1.66-.52,3.5-1.56,4.25-3,2.19-15,1.63-20.53,1.58V217.17h20.93a10.13,10.13,0,0,1,3.86,1.1,7.12,7.12,0,0,1,2.26,3c.24.7.48,1.41.71,2.12h1.73c.32,0,.12-9.07.12-9.07-.05-.32-.41-.32-1.27-.32l-46.36,0c-.7,0-.71,2.07-.06,2.07h3.71c3.15.16,3.31.55,3.58.76,1.05.91,1.23,1.85,1.23,5.85,0,0,.46,26.84-.52,27.46-.8,1.06-4,1.69-7.8,1.7-.68,0-.68,2,0,2l47.36,0s5.92-10.5,5.73-10.62Z" transform="translate(-67.73 -85.46)"/><path class="cls-1" d="M318.56,185.53c-1.6,1.14-14.79,2.9-16.26,3.1,0,0,0,0,0,0h14.06l-6.27,8.93H143l7.31-8.93H267s-14.43-.71-23.13-4.11H153.69l7.07-8.64h66a6.77,6.77,0,0,1-2.15-4.54H164.47l7-8.5h55.45a13.71,13.71,0,0,1,3.4-4.39H175l7.07-8.65h49.7s-1.8-2.71-1.74-4.39H185.69l6.95-8.5h37.7a13.35,13.35,0,0,1,2.12-4.53H196.35l7.07-8.65h39.1a55.65,55.65,0,0,1,6.57-4.39H207l6.95-8.51h53.15c6.9-2.76,12.21-4.53,12.21-4.53H217.68l6.95-8.5h86.76c9.55-2.23,26.55-4.4,26.55-4.4H228.23l6.49-7.94H388.86s-5.44,7.79-7.57,10.78C360.72,95,344.11,97.62,342,97.68s-31.48,5.32-46.23,11.2c-5.66,2.21-24.25,8.46-35.54,16.81-10.15,6.35-13.65,13-11.08,19.17,5.2-2.23,9.8-5.84,28.39-10.22,23-4.4,29.8-.12,33.56,1.68,8.13,5.2,4.41,11.64,2.34,13.73S311.17,153,303,157.57c-3,1.45-12.06,5.39-25.76,6.7-5.83,0-17.63,1.22-27.32-2.53-2,3.85-8.64,13.28,9.8,19.61,16.06,6.06,51.11,3.56,60.72,1.49Zm-59.18-32.75c3-2.49,15.3-8.08,15.3-8.08s12.68-4.87,22.4-5.24c13.32-.53,12.52,5.35,12.47,6.09-1.4,5.9-10.36,7.66-21,8.93C274.77,156.5,263.52,154.59,259.38,152.78Z" transform="translate(-67.73 -85.46)"/></svg>